<svg width="1024" height="1024" viewBox="0 0 1024 1024" fill="none" xmlns="http://www.w3.org/2000/svg">
<path d="M734.851 288.067C744.895 304.993 753.902 322.453 759.453 341.391C776.412 399.257 770.781 453.68 733.885 503.071C731.198 506.667 728.193 510.041 725.155 513.353C722.884 515.829 722.5 518.274 724.515 520.952C728.511 526.267 732.185 531.886 736.663 536.763C754.778 556.497 770.636 577.835 783.072 601.576C796.426 627.068 807.344 653.481 810.372 682.452C810.971 688.184 810.786 694.136 809.975 699.846C808.795 708.157 803.437 711.995 795.078 710.903C791.004 710.371 786.6 709.583 783.156 707.543C772.881 701.457 762.967 694.754 752.995 688.166C748.894 685.457 748.704 680.931 748.239 676.598C746.508 660.5 744.066 644.521 738.278 629.308C734.986 620.656 731.08 612.238 727.451 603.715C726.896 603.894 726.341 604.072 725.787 604.25C727.61 612.179 729.066 620.213 731.32 628.017C742.736 667.561 739.79 706.166 725.72 744.636C712.551 780.639 685.83 802.179 652.352 817.248C648.282 819.08 644.081 820.625 639.994 823.062C641.424 822.97 642.892 823.054 644.28 822.759C660.188 819.38 675.351 814.085 689.265 805.456C690.899 804.442 693.483 803.682 695.168 804.226C710.185 809.074 724.338 815.686 735.706 826.977C738.706 829.958 741.311 833.624 743.126 837.437C745.332 842.071 743.52 845.47 738.759 847.38C736.922 848.117 734.958 848.644 733.002 848.964C723.819 850.466 724.951 849.534 722.1 843.322C716.445 831.005 706.277 823.93 693.797 819.734C692.599 819.331 691.289 819.263 689.418 820.069C690.968 821.287 692.583 822.431 694.055 823.737C700.112 829.111 706.227 834.428 712.083 840.015C713.557 841.422 714.274 843.698 715.124 845.668C716.857 849.685 715.11 851.589 711.063 852.036C678.85 855.591 646.819 855.664 615.66 845.337C608.703 843.031 602.527 838.428 595.868 835.132C593.494 833.957 590.696 832.69 588.193 832.871C557.498 835.089 526.951 834.13 496.516 829.471C495.114 829.257 492.806 829.744 492.139 830.73C484.419 842.135 472.379 846.228 460.083 849.43C439.7 854.739 418.905 854.932 398.061 852.899C393.138 852.418 391.827 850.505 392.63 845.383C394.154 835.664 399.133 827.74 405.572 820.498C407.667 818.143 411.382 816.389 410.419 811.753C409.38 812.048 408.509 812.083 407.897 812.499C395.71 820.787 385.824 830.905 383.097 846.063C382.298 850.502 380.044 852.312 376.084 851.936C371.471 851.498 366.795 850.834 362.371 849.514C356.681 847.816 354.425 843.824 356.608 838.253C358.569 833.249 361.209 828.051 364.923 824.297C370.964 818.19 378.125 813.192 385.244 807.399C385.887 806.77 386.1 806.468 386.312 806.167C385.718 806.264 385.244 806.167 384.433 806.167C382 806 380.005 805.779 378.408 804.565C359.887 790.483 350.611 770.732 346.169 748.721C337.059 703.582 343.213 659.902 361.283 617.88C365.922 607.092 372.296 597.022 378.306 586.88C379.39 585.05 380.669 581.868 383 581C385.359 580.122 389.745 582.131 392.889 581.374C325.741 563.862 277.151 525.71 248.951 461.967C247.839 459.197 246.951 457.085 246.063 454.623C245.658 453.183 245.254 452.093 244.85 450.615C239.759 434.328 239.539 418.256 243.322 401.848C243.633 401.1 243.739 400.551 244.024 399.705C244.63 398.094 245.057 396.781 245.493 395.451C245.503 395.436 245.483 395.405 245.672 395.16C246.17 393.944 246.478 392.972 246.978 391.706C247.81 389.663 248.45 387.915 249.345 385.928C254.785 377.144 259.969 368.597 265.434 359.901C266.835 358.218 267.955 356.686 269.372 354.991C299.808 319.97 336.603 294.62 379.574 278.197C390.005 274.21 400.662 270.814 412.048 270.952C422.134 271.075 426.596 275.967 424.821 285.92C423.689 292.265 421.859 298.583 419.536 304.602C409.433 330.776 394.054 353.94 377.64 376.451C369.498 387.618 360.747 398.344 352.72 409.59C343.797 422.091 343.921 430.811 352.283 443.653C353.1 444.908 353.952 446.144 354.851 447.342C368.259 465.218 386.017 477.1 406.724 484.886C408.388 485.512 410.17 485.826 411.897 486.284C411.075 483.87 409.647 482.351 408.201 480.85C378.909 450.454 374.732 404.208 397.979 369.116C412.617 347.019 426.383 324.439 435.778 299.468C436.364 297.91 438.688 296.356 440.45 295.992C456.401 292.703 472.323 293.862 488.01 297.566C519.535 305.009 542.834 317.378 566.5 339.269C571.713 344.091 580.987 343.562 585.5 338C591.349 330.791 595.028 326.315 600.295 319.882C601.838 317.998 604.451 317.683 606.5 319C617.427 326.021 618.562 325.996 629.5 333C638 338 647.5 335.5 650.5 328.5C652.262 324.389 655.5 319 658 314.5C664.87 298.464 666.844 292.243 680.856 281.109C699.495 266.298 720.101 271.986 734.851 288.067ZM482.337 452.345C495.463 456.326 505.925 452.962 513.978 442.007C521.434 431.864 523.487 420.183 522.982 407.961C522.338 392.374 517.261 378.651 505.029 368.273C492.216 357.401 474.824 358.496 464.197 371.412C451.959 386.286 451.664 403.514 456.499 421.078C460.299 434.884 467.551 446.343 482.337 452.345ZM655.822 422.71C647.368 416.595 639.361 409.701 630.355 404.553C617.577 397.248 603.964 397.213 591.6 405.697C583.585 411.198 576.101 417.694 569.24 424.6C561.083 432.811 561.726 439.54 569.898 447.927C578.693 456.954 589.175 463.175 601.204 466.768C625.821 474.121 649.32 462.774 659.152 439.028C661.643 433.011 661.554 427.727 655.822 422.71ZM731.38 392.099C729.955 377.569 726.46 363.804 715.821 353.004C705.327 342.35 691.694 343.368 682.686 355.235C667.585 375.128 671.345 416.482 689.81 433.584C702.825 445.638 717.91 442.983 725.91 427.08C731.309 416.346 732.254 404.794 731.38 392.099Z" fill="white"/>
<path d="M314.498 688.515C311.243 684.764 307.483 681.632 305.463 677.623C302.151 671.049 306.562 665.138 313.582 667.01C319.312 668.538 324.609 672.018 329.755 675.188C331.094 676.013 331.946 679.029 331.682 680.845C328.15 705.219 328.997 729.32 336.128 754.009C332.079 750.935 328.888 748.372 325.557 746.007C310.502 735.316 295.253 724.888 280.417 713.903C275.68 710.396 271.42 705.88 267.965 701.088C262.188 693.076 265.158 686.944 274.947 684.937C284.926 682.891 294.506 684.758 303.888 687.906C309.171 689.678 314.245 692.073 320.049 693.315C318.29 691.79 316.532 690.265 314.498 688.515Z" fill="white"/>
<path d="M695.612 242.36C701.478 248.16 707.089 253.714 713.766 260.324C706.515 260.324 700.83 259.613 695.384 260.454C677.307 263.245 665.571 275.374 656.004 289.572C650.184 298.209 645.939 307.911 641.029 317.158C639.282 320.448 635.252 321.739 632.132 319.704C623.678 314.193 615.324 308.747 606.81 303.196C602.511 300.393 596.788 301.3 593.566 305.294C589.514 310.316 585.48 315.315 581.417 320.352C577.966 324.629 571.721 325.304 567.324 322.008C529.822 293.888 489.098 275.958 439.855 282.165C439.855 279.245 439.925 276.638 439.842 274.036C439.525 264.079 434.832 258.585 425.004 257.022C414.266 255.314 403.734 256.963 393.381 259.743C385.718 261.8 378.165 264.267 369.66 265.813C375.814 258.339 381.533 250.451 388.196 243.463C416.901 213.356 452.412 195.738 493.071 188.695C547.022 179.348 598.876 186.246 648.126 210.75C665.182 219.236 680.997 229.575 695.612 242.36Z" fill="white"/>
<path d="M482.454 380.562C489.218 373.058 498.15 373.278 503.873 381.082C508.564 387.478 509.254 394.587 506.019 401.862C503.734 407.001 498.597 409.783 493.039 409.285C487.694 408.806 481.846 403.813 480.175 398.1C478.419 392.093 478.659 386.262 482.454 380.562Z" fill="white"/>
<path d="M641.617 453.646C621.395 469.274 582.345 462.422 574.962 441.448C600.188 448.3 625.081 451.791 650.703 440.396C649.069 446.484 645.431 449.918 641.617 453.646Z" fill="white"/>
<path d="M707.588 389.35C701.355 398.204 691.901 397.787 687.138 388.594C683.843 382.234 683.486 375.494 686.191 368.791C687.932 364.475 691.126 361.5 695.886 361.212C700.629 360.925 704.142 363.534 706.518 367.479C710.689 374.4 710.825 381.637 707.588 389.35Z" fill="white"/>
</svg>
