<svg width="1024" height="1024" viewBox="0 0 1024 1024" fill="none" xmlns="http://www.w3.org/2000/svg">
<g clip-path="url(#clip0_29_1781)">
<path d="M640.544 370.478C646.693 380.838 652.209 391.525 655.607 403.117C665.991 438.536 662.543 471.847 639.952 502.079C638.307 504.28 636.467 506.345 634.607 508.372C633.217 509.887 632.982 511.384 634.215 513.024C636.662 516.276 638.912 519.716 641.653 522.701C652.745 534.78 662.454 547.841 670.069 562.372C678.245 577.975 684.93 594.142 686.784 611.875C687.151 615.383 687.037 619.026 686.541 622.521C685.818 627.609 682.538 629.958 677.42 629.289C674.926 628.964 672.229 628.481 670.12 627.233C663.829 623.507 657.759 619.405 651.653 615.372C649.142 613.714 649.026 610.944 648.741 608.292C647.681 598.438 646.186 588.658 642.642 579.346C640.627 574.051 638.235 568.898 636.013 563.681C635.673 563.79 635.334 563.9 634.994 564.009C636.111 568.862 637.002 573.779 638.382 578.556C645.372 602.76 643.568 626.39 634.953 649.936C626.89 671.973 610.529 685.158 590.032 694.381C587.539 695.503 584.967 696.448 582.464 697.94C583.34 697.883 584.239 697.935 585.089 697.754C594.829 695.686 604.113 692.445 612.632 687.164C613.633 686.543 615.215 686.078 616.247 686.411C625.442 689.378 634.107 693.425 641.067 700.336C642.904 702.161 644.499 704.404 645.611 706.739C646.961 709.575 645.852 711.656 642.937 712.824C641.812 713.276 640.609 713.598 639.412 713.794C633.789 714.713 634.482 714.143 632.737 710.341C629.274 702.802 623.049 698.471 615.407 695.903C614.674 695.656 613.872 695.615 612.726 696.108C613.675 696.854 614.664 697.554 615.565 698.353C619.274 701.643 623.018 704.897 626.603 708.317C627.506 709.178 627.945 710.571 628.465 711.777C629.526 714.235 628.457 715.401 625.979 715.674C606.255 717.851 586.643 717.895 567.565 711.574C563.306 710.162 559.524 707.345 555.447 705.328C553.994 704.609 552.28 703.833 550.748 703.944C531.954 705.302 513.251 704.714 494.616 701.863C493.757 701.732 492.344 702.03 491.936 702.633C487.209 709.614 479.837 712.119 472.309 714.079C459.828 717.329 447.096 717.447 434.334 716.202C431.319 715.908 430.516 714.737 431.008 711.602C431.941 705.653 434.99 700.803 438.932 696.371C440.215 694.929 442.49 693.855 441.9 691.018C441.264 691.198 440.731 691.22 440.356 691.474C432.894 696.548 426.841 702.741 425.171 712.018C424.682 714.735 423.302 715.844 420.877 715.613C418.053 715.345 415.19 714.939 412.481 714.131C408.997 713.092 407.616 710.648 408.953 707.238C410.153 704.175 411.77 700.993 414.043 698.696C417.742 694.958 422.127 691.899 426.486 688.353C426.88 687.968 427.01 687.783 427.14 687.599C426.776 687.658 426.486 687.599 425.989 687.599C424.499 687.497 423.278 687.361 422.3 686.618C410.96 677.999 405.281 665.91 402.561 652.437C396.983 624.808 400.751 598.072 411.815 572.351C414.655 565.748 418.558 559.585 422.238 553.377C422.902 552.256 423.685 550.309 425.112 549.778C426.556 549.24 429.242 550.47 431.167 550.006C390.053 539.288 360.303 515.935 343.036 476.919C342.355 475.224 341.812 473.931 341.268 472.424C341.02 471.543 340.773 470.876 340.525 469.971C337.408 460.002 337.273 450.165 339.59 440.122C339.78 439.664 339.845 439.328 340.019 438.81C340.39 437.824 340.652 437.02 340.919 436.206C340.925 436.197 340.913 436.178 341.029 436.028C341.333 435.284 341.522 434.689 341.828 433.914C342.338 432.664 342.729 431.593 343.277 430.378C346.608 425.001 349.782 419.769 353.128 414.446C353.986 413.417 354.672 412.479 355.539 411.441C374.175 390.005 396.704 374.489 423.014 364.437C429.401 361.996 435.926 359.918 442.897 360.003C449.073 360.078 451.805 363.072 450.718 369.164C450.025 373.048 448.904 376.915 447.482 380.599C441.296 396.62 431.88 410.798 421.83 424.576C416.845 431.411 411.487 437.977 406.572 444.86C401.109 452.512 401.185 457.849 406.304 465.71C406.804 466.478 407.326 467.234 407.877 467.968C416.086 478.909 426.959 486.182 439.638 490.948C440.657 491.331 441.748 491.523 442.805 491.804C442.302 490.326 441.428 489.396 440.542 488.477C422.607 469.873 420.049 441.566 434.283 420.087C443.246 406.562 451.674 392.741 457.427 377.457C457.786 376.503 459.209 375.551 460.287 375.329C470.054 373.316 479.803 374.025 489.408 376.292C508.71 380.848 522.975 388.419 537.466 401.818C540.657 404.769 546.336 404.446 549.099 401.041C552.68 396.629 554.933 393.889 558.157 389.952C559.102 388.798 560.702 388.606 561.957 389.412C568.647 393.709 569.342 393.694 576.039 397.981C581.244 401.041 587.06 399.511 588.897 395.226C589.976 392.711 591.959 389.412 593.489 386.657C597.696 376.842 598.905 373.034 607.484 366.219C618.896 357.154 631.513 360.635 640.544 370.478ZM485.934 471.03C493.971 473.467 500.376 471.408 505.307 464.702C509.872 458.494 511.129 451.344 510.82 443.863C510.426 434.322 507.317 425.923 499.828 419.571C491.983 412.916 481.334 413.587 474.827 421.492C467.334 430.596 467.153 441.141 470.114 451.892C472.441 460.343 476.881 467.356 485.934 471.03ZM592.156 452.891C586.98 449.148 582.077 444.928 576.563 441.777C568.739 437.306 560.404 437.284 552.834 442.478C547.926 445.845 543.344 449.821 539.143 454.048C534.149 459.073 534.543 463.192 539.546 468.326C544.931 473.851 551.349 477.659 558.714 479.858C573.787 484.359 588.175 477.414 594.195 462.879C595.72 459.196 595.665 455.962 592.156 452.891ZM638.419 434.155C637.546 425.261 635.406 416.836 628.892 410.225C622.467 403.704 614.12 404.327 608.604 411.591C599.358 423.767 601.661 449.079 612.966 459.547C620.935 466.925 630.171 465.299 635.069 455.566C638.375 448.995 638.954 441.925 638.419 434.155Z" fill="white"/>
<path d="M382.614 615.261C380.6 612.985 378.273 611.085 377.023 608.652C374.973 604.664 377.703 601.077 382.047 602.213C385.593 603.14 388.871 605.252 392.056 607.175C392.885 607.676 393.412 609.506 393.249 610.607C391.063 625.396 391.587 640.02 396 655C393.494 653.135 391.519 651.58 389.458 650.145C380.141 643.658 370.704 637.331 361.522 630.666C358.591 628.538 355.955 625.798 353.816 622.89C350.241 618.029 352.079 614.308 358.138 613.09C364.313 611.849 370.241 612.982 376.048 614.892C379.317 615.967 382.457 617.42 386.049 618.174C384.961 617.248 383.873 616.323 382.614 615.261Z" fill="white"/>
<path d="M616.816 341.794C620.43 345.394 623.886 348.841 628 352.944C623.532 352.944 620.03 352.503 616.675 353.025C605.538 354.757 598.307 362.285 592.413 371.098C588.828 376.459 586.212 382.481 583.188 388.221C582.113 390.259 579.617 391.057 577.692 389.792C573.465 387.016 569.28 384.267 565.048 381.488C560.736 378.655 554.978 379.568 551.753 383.595C550.793 384.794 549.833 385.992 548.872 387.193C545.419 391.504 539.142 392.17 534.669 388.93C512.421 372.812 488.228 362.82 459.246 366.501C459.246 364.688 459.29 363.07 459.238 361.455C459.043 355.275 456.152 351.865 450.097 350.894C443.481 349.834 436.993 350.858 430.614 352.583C425.893 353.86 421.24 355.391 416 356.351C419.791 351.712 423.315 346.816 427.42 342.478C445.105 323.791 466.982 312.855 492.032 308.484C525.271 302.682 557.218 306.964 587.56 322.173C598.068 327.44 607.811 333.858 616.816 341.794Z" fill="white"/>
<path d="M486.075 427.201C490.29 422.821 495.854 422.949 499.42 427.505C502.343 431.238 502.773 435.388 500.757 439.634C499.334 442.634 496.133 444.257 492.67 443.967C489.34 443.687 485.696 440.773 484.655 437.438C483.561 433.932 483.711 430.528 486.075 427.201Z" fill="white"/>
<path d="M583.482 471.905C571.2 481.23 547.484 477.142 543 464.628C558.32 468.716 573.439 470.799 589 464C588.007 467.633 585.798 469.681 583.482 471.905Z" fill="white"/>
<path d="M624.579 432.112C620.662 437.493 614.721 437.24 611.728 431.653C609.658 427.788 609.433 423.693 611.133 419.619C612.227 416.996 614.234 415.188 617.225 415.013C620.206 414.839 622.413 416.424 623.907 418.821C626.528 423.027 626.613 427.426 624.579 432.112Z" fill="white"/>
</g>
<defs>
<clipPath id="clip0_29_1781">
<rect width="1024" height="1024" fill="white"/>
</clipPath>
</defs>
</svg>
